<?xml version="1.0" encoding="UTF-8"?>
<svg width="129px" height="116px" viewBox="0 0 129 116" version="1.1" xmlns="http://www.w3.org/2000/svg" xmlns:xlink="http://www.w3.org/1999/xlink">
    <title>noun_medical herbs_2549904</title>
    <g id="Page-1" stroke="none" stroke-width="1" fill="none" fill-rule="evenodd">
        <g id="noun_medical-herbs_2549904" fill="#000000" fill-rule="nonzero">
            <path d="M127.99994,55.47992 C127.996254,51.8368137 127.64601,48.2023189 126.95394,44.62555 C126.936564,44.4769406 126.90949,44.3296263 126.87289,44.18455 C126.83694,44.00572 126.81149,43.82371 126.77383,43.64543 C126.654513,43.0873949 126.30123,42.6075021 125.80383,42.3278 C123.52771,39.86936 118.19928,38.0615 111.56988,36.7328 L108.65264,40.26826 C117.42712,41.83064 122.28789,43.65083 122.95364,44.98026 C122.95877,45.00589 122.96264,45.0319 122.9678,45.05759 C121.56942,47.97422 100.97262,53.07242 63.9999,53.07242 C26.88857,53.07242 6.27212,47.93542 5.0237,45.10257 L5.02986,45.06912 C6.41255,42.15312 27.01155,37.05057 63.99986,37.05057 C64.81297,37.05057 65.60786,37.05619 66.40513,37.06101 L71.13755,33.14487 C67.16611,33.05063 64.49747,33.04508 63.99985,33.04508 C61.64273,33.04508 10.71115,33.1619 2.20706,42.3223 C1.704071,42.6007091 1.34627118,43.0832717 1.226,43.64545 C1.19188,43.80695 1.169,43.9718 1.13628,44.13373 C1.08193264,44.329747 1.04508483,44.5301997 1.02617,44.73273 C0.347522155,48.2749747 0.00392894551,51.8732533 -6e-05,55.47992 C-6e-05,81.1615 16.92413,103.15222 40.74671,111.99451 L7.83344,111.99451 C6.72910175,111.996978 5.83516521,112.892914 5.83516521,113.997255 C5.83516521,115.101596 6.72910175,115.997532 7.83344,116 L122.16694,116 C123.271278,115.997532 124.165215,115.101596 124.165215,113.997255 C124.165215,112.892914 123.271278,111.996978 122.16694,111.99451 L87.25317,111.99451 C111.07574,103.15222 127.99994,81.1615 127.99994,55.47992 Z M68.2561,111.99451 L59.74377,111.99451 C28.6405,109.9234 3.99994,85.37653 3.99994,55.47992 C4.00294804,53.4682619 4.1185053,51.4583476 4.34607,49.4596 C17.05933,56.97638 61.79443,57.07783 63.99994,57.07783 C66.20545,57.07783 110.94055,56.97639 123.65381,49.4596 C123.881375,51.4583476 123.996932,53.4682619 123.99994,55.47992 C123.99994,85.37653 99.35938,109.9234 68.2561,111.99451 Z" id="Shape"></path>
            <path d="M58.34058,49.02289 C60.2117933,49.0518833 62.0982467,49.06689 63.99994,49.06689 C64.15494,49.06689 64.3031,49.06518 64.4574,49.065 L99.8703,19.76068 C100.880383,18.9244018 101.417483,17.6468922 101.30841,16.34009 C100.988441,12.4979189 102.62706,8.75336255 105.66641,6.38123 C109.599093,3.33995315 115.050729,3.20328218 119.130864,6.04367989 C123.211,8.88407761 124.975298,14.0441413 123.488331,18.7880101 C122.001363,23.5318789 117.607284,26.7615966 112.63583,26.76477 C112.31747,26.76477 111.99521,26.75134 111.67794,26.72477 C111.566607,26.71549 111.455583,26.7108733 111.34487,26.71092 C110.151647,26.7112385 109.020939,27.2445373 108.26174,28.16508 L91.96588,47.91479 C94.03155,47.73303 95.91974,47.54241 97.61932,47.35162 L111.3454,30.71637 C111.774733,30.7522567 112.20489,30.7702 112.63587,30.7702 C121.132826,30.7678556 128.019069,23.8778111 128.016726,15.380855 C128.014381,6.8838989 121.124336,-0.00234444876 112.62738,-3.10530081e-06 C108.324393,-0.00273440717 104.217769,1.80050153 101.307911,4.97042779 C98.3980525,8.14035406 96.9520903,12.3859642 97.32227,16.673 L59.31805,48.12158 C58.97211,48.40784 58.65308,48.71332 58.34058,49.02289 Z" id="Path"></path>
        </g>
    </g>
</svg>