<?xml version="1.0" encoding="iso-8859-1"?>
<!-- Generator: Adobe Illustrator 19.0.0, SVG Export Plug-In . SVG Version: 6.00 Build 0)  -->
<svg version="1.1" id="Capa_1" xmlns="http://www.w3.org/2000/svg" xmlns:xlink="http://www.w3.org/1999/xlink" x="0px" y="0px"
	 viewBox="0 0 497.9 497.9" style="enable-background:new 0 0 497.9 497.9;" xml:space="preserve">
<g>
	<g>
		<path d="M479.9,477.9h-67.4c8.9-6,15.5-16,18.6-26h9.6c21.8,0,39.4-18.1,39.4-39.9v-28.5c0-15.5-9-29.5-23.1-36L423,332
			l-30.1-48.1c-9.1-14.3-24.9-23-41.9-23H222.1c-15.4,0-29.9,7.2-39.2,19.5l-38.7,50.9l-65,17.8c-17.2,4.7-29.1,20.3-29.1,38.1v24.9
			c0,21.8,17.8,39.9,39.5,39.9h4.6c3,10,9.7,20,18.6,26H28V70.8C28,42.6,51.1,20,79.3,20h137.6c24.7,0,45.9,17.6,50.3,41.9
			c-32.9,5.3-57.1,33.6-57.2,66.9v7c0,5.6,4.5,10.1,10.1,10.2H336c5.6-0.1,10-4.6,10-10.2v-7c-0.1-33.8-25-62.5-58.6-67.1
			C282.7,26.4,252.5,0,216.8,0H79.3C40,0,8,31.6,8,70.8v417.5c0,5.5,4.6,9.6,10.1,9.6h461.8c5.5,0,10-4.5,10-10
			S485.4,477.9,479.9,477.9z M281,81c24.2,1.5,43.4,20.8,44.9,44.9h-95.7C231.8,99.5,254.6,79.4,281,81z M92.8,431.9h-3.2
			c-10.7,0-19.5-9.1-19.5-19.9v-24.9c0-8.8,5.9-16.5,14.4-18.8l68.3-18.6c2.1-0.6,4-1.8,5.3-3.6l40.8-53.6
			c5.4-7.3,14.1-11.6,23.2-11.6H351c10.1,0,19.5,5.2,24.9,13.8l31.7,50.6c1,1.7,2.5,3,4.3,3.8l36.7,16.7
			c6.9,3.2,11.4,10.1,11.4,17.8v28.5c0,10.8-8.7,19.9-19.4,19.9h-8.1c-3.6-27.3-28.7-46.4-55.9-42.8c-22.3,3-39.9,20.5-42.8,42.8
			H191.5c-3.6-27.3-28.6-46.4-55.9-42.8C113.3,392,95.7,409.6,92.8,431.9z M142.2,467.9c-16.4,0-29.8-13.4-29.8-29.8
			c-0.1-16.5,13.3-29.8,29.8-29.8s29.8,13.4,29.8,29.8C172,454.6,158.6,467.9,142.2,467.9z M171.6,477.9c8.8-6,15.5-16,18.5-26h145
			c3,10,9.7,20,18.6,26H171.6z M383.1,467.9c-16.5,0-29.8-13.4-29.8-29.8c0-16.4,13.4-29.8,29.8-29.8c16.5,0,29.8,13.4,29.8,29.8
			C412.9,454.6,399.5,467.9,383.1,467.9z"/>
	</g>
</g>
<g>
	<g>
		<path d="M278,155c-5.5,0-10,4.5-10,10v17.3c0,5.5,4.5,10,10,10s10-4.5,10-10V165C288,159.5,283.5,155,278,155z"/>
	</g>
</g>
<g>
	<g>
		<path d="M327,155c-5.5,0-10,4.5-10,10v17.3c0,5.5,4.5,10,10,10s10-4.5,10-10V165C337,159.5,332.5,155,327,155z"/>
	</g>
</g>
<g>
	<g>
		<path d="M229,155c-5.5,0-10,4.5-10,10v17.3c0,5.5,4.5,10,10,10s10-4.5,10-10V165C239,159.5,234.5,155,229,155z"/>
	</g>
</g>
<g>
	<g>
		<path d="M278,203.7c-5.5,0-10,4.5-10,10V231c0,5.5,4.5,10,10,10s10-4.5,10-10v-17.3C288,208.2,283.5,203.7,278,203.7z"/>
	</g>
</g>
<g>
	<g>
		<path d="M327,203.7c-5.5,0-10,4.5-10,10V231c0,5.5,4.5,10,10,10s10-4.5,10-10v-17.3C337,208.2,332.5,203.7,327,203.7z"/>
	</g>
</g>
<g>
	<g>
		<path d="M229,203.7c-5.5,0-10,4.5-10,10V231c0,5.5,4.5,10,10,10s10-4.5,10-10v-17.3C239,208.2,234.5,203.7,229,203.7z"/>
	</g>
</g>
<g>
</g>
<g>
</g>
<g>
</g>
<g>
</g>
<g>
</g>
<g>
</g>
<g>
</g>
<g>
</g>
<g>
</g>
<g>
</g>
<g>
</g>
<g>
</g>
<g>
</g>
<g>
</g>
<g>
</g>
</svg>
