<?xml version="1.0"?>
<svg xmlns="http://www.w3.org/2000/svg" id="Outline" viewBox="0 0 512 512" width="512" height="512"><path d="M434.809,232.436c-2.788-2.788-5.731-5.424-8.778-7.919A117.468,117.468,0,0,0,456,146.05V120a8,8,0,0,0-8-8H400V64a8,8,0,0,0-8-8H365.95a118.239,118.239,0,0,0-28.519,3.494,118.741,118.741,0,0,0-17.719-22.625L301.729,18.417A8,8,0,0,0,296.063,16a7.81,7.81,0,0,0-5.7,2.327l-58.436,58.1a119.261,119.261,0,0,0-8.08,8.94A117.455,117.455,0,0,0,146.05,56H120a8,8,0,0,0-8,8v48H64a8,8,0,0,0-8,8v26.05a118.335,118.335,0,0,0,3.24,27.479A118.935,118.935,0,0,0,36.25,191.5L18.343,209.4a8,8,0,0,0,0,11.313l58.849,58.849c2.788,2.789,5.731,5.424,8.777,7.919A117.468,117.468,0,0,0,56,365.95V392a8,8,0,0,0,8,8h48v48a8,8,0,0,0,8,8h26.05a118.239,118.239,0,0,0,28.519-3.494,118.741,118.741,0,0,0,17.719,22.625l17.983,18.452A8,8,0,0,0,215.937,496H216a8,8,0,0,0,5.641-2.327l58.436-58.1a119.078,119.078,0,0,0,8.063-8.955A117.453,117.453,0,0,0,365.95,456H392a8,8,0,0,0,8-8V400h48a8,8,0,0,0,8-8V365.95a118.326,118.326,0,0,0-3.24-27.478,118.918,118.918,0,0,0,22.99-17.967L493.657,302.6a8,8,0,0,0,0-11.313ZM440,146.05A102.065,102.065,0,0,1,338.05,248H319.482a63.661,63.661,0,0,0-12.956-31.212l13.149-13.15a117.076,117.076,0,0,0,34.245-74.911A103.4,103.4,0,0,1,365.95,128H440ZM256,304a48,48,0,1,1,48-48A48.055,48.055,0,0,1,256,304ZM365.95,72H384v40H365.95a119.388,119.388,0,0,0-11.977.61,117.311,117.311,0,0,0-9.05-38.422A102.4,102.4,0,0,1,365.95,72ZM295.911,35.371l12.378,12.7c.024.024.048.049.073.073a102.066,102.066,0,0,1,0,144.179l-13.149,13.149A63.672,63.672,0,0,0,264,192.518V173.95A117.453,117.453,0,0,0,235.2,96.8a102.9,102.9,0,0,1,8.022-9.037ZM128,72h18.05A102.065,102.065,0,0,1,248,173.95v18.568a64.139,64.139,0,0,0-54.291,48.844A102.343,102.343,0,0,1,128,146.05ZM72,146.05V128h40v18.05c0,3.749.2,7.462.551,11.141a116.825,116.825,0,0,0-38.569,8.882A102.555,102.555,0,0,1,72,146.05ZM35.313,215.059l12.251-12.251a100.823,100.823,0,0,1,67.621-29.721,118.753,118.753,0,0,0,55.537,74.959,117.423,117.423,0,0,0-73.231,28.169,103.321,103.321,0,0,1-8.986-7.965ZM72,365.95A102.065,102.065,0,0,1,173.95,264h18.568a63.661,63.661,0,0,0,12.956,31.212l-13.149,13.15a117.076,117.076,0,0,0-34.245,74.91,103.186,103.186,0,0,1-12.03.728H72ZM146.05,440H128V400h18.05a119.388,119.388,0,0,0,11.977-.61,117.311,117.311,0,0,0,9.05,38.422A102.4,102.4,0,0,1,146.05,440Zm70.039,36.629-12.378-12.7c-.024-.024-.048-.049-.073-.073a101.951,101.951,0,0,1,0-144.179l13.149-13.149A63.672,63.672,0,0,0,248,319.482V338.05a117.449,117.449,0,0,0,28.792,77.14,103.31,103.31,0,0,1-8.012,9.05ZM384,440H365.95A102.065,102.065,0,0,1,264,338.05V319.482a64.139,64.139,0,0,0,54.291-48.844A102.345,102.345,0,0,1,384,365.95Zm56-74.05V384H400V365.95c0-3.751-.2-7.466-.551-11.147a116.83,116.83,0,0,0,38.57-8.876A102.639,102.639,0,0,1,440,365.95Zm24.436-56.758a100.866,100.866,0,0,1-67.621,29.721,118.755,118.755,0,0,0-55.537-74.959,117.419,117.419,0,0,0,73.231-28.169,103.193,103.193,0,0,1,8.986,7.965l53.192,53.191Z"/></svg>
