<svg width="140" height="139" viewBox="0 0 140 139" fill="none" xmlns="http://www.w3.org/2000/svg">
<path d="M69.6738 139C108.154 139 139.348 107.884 139.348 69.5C139.348 31.1162 108.154 0 69.6738 0C31.194 0 0 31.1162 0 69.5C0 107.884 31.194 139 69.6738 139Z" fill="#1BC3AD"/>
<path d="M69.0908 27C61.6117 28.5045 58.0677 27.9359 58.0677 34.9783V50.7484C60.918 46.8962 66.3089 44.0672 72.939 44.0672C93.5729 44.0672 102 62.6061 102 80.4228C102 100.286 91.714 111 78.3918 111C69.4071 111 61.9094 106.185 58.0677 97.6375V110.639C54.4118 109.435 49.8265 108.953 44.8694 108.953C42.3289 108.953 39.6644 109.074 37 109.315V106.726C44.3737 106.726 46.6663 103.235 46.6663 95.8318V33.7143C46.6663 29.7817 54.1412 27.5437 69.0908 27ZM71.4104 47.0727C64.6948 47.0727 60.2799 50.4437 57.917 55.0185V91.9184C60.653 102.332 67.4308 107.509 74.8305 107.509C84.5308 107.509 89.6298 98.4798 89.6298 78.9162C89.6298 61.3993 85.5257 47.0727 71.4104 47.0727Z" fill="white"/>
</svg>
