<?xml version="1.0" encoding="UTF-8"?>
<svg width="415px" height="415px" viewBox="0 0 415 415" version="1.1" xmlns="http://www.w3.org/2000/svg" xmlns:xlink="http://www.w3.org/1999/xlink">
    <title>logo copy</title>
    <g id="logo-copy" stroke="none" stroke-width="1" fill="none" fill-rule="evenodd">
        <g id="Group" transform="translate(7.000000, 7.039822)">
            <ellipse id="Combined-Shape" fill="#1BC3AD" cx="200.5" cy="200.460178" rx="200.5" ry="200"></ellipse>
            <g id="ico-spa" transform="translate(48.000000, 48.960178)" fill="#FFFFFF" fill-rule="nonzero">
                <path d="M266.118317,137.076552 C264.346774,135.310823 262.476741,133.641361 260.540625,132.061198 C272.816334,118.401426 279.597832,100.703895 279.583444,82.3655564 L279.583444,65.8672645 C279.583444,63.0690287 277.307556,60.8006105 274.500106,60.8006105 L244.000079,60.8006105 L244.000079,30.4006868 C244.000079,27.6024511 241.724192,25.3340329 238.916742,25.3340329 L222.364123,25.3340329 C216.255844,25.3346763 210.170437,26.0777817 204.24266,27.546894 C201.085545,22.3338047 197.304878,17.5221982 192.983702,13.2177633 L181.556994,1.53152596 C180.610005,0.562747654 179.313699,0.0115847154 177.95672,0 C176.597894,-0.0230133317 175.288741,0.50968866 174.334842,1.4745261 L137.203601,38.2711004 C135.39758,40.0709912 133.684003,41.9607314 132.06943,43.9330862 C118.418405,31.9325006 100.837917,25.3179561 82.6358768,25.3340329 L66.0832583,25.3340329 C63.2758084,25.3340329 60.9999205,27.6024511 60.9999205,30.4006868 L60.9999205,60.8006105 L30.499894,60.8006105 C27.6924441,60.8006105 25.4165563,63.0690287 25.4165563,65.8672645 L25.4165563,82.3655564 C25.4176574,88.2269468 26.1086302,94.0679731 27.4753081,99.7688794 C22.1556422,102.95072 17.2493103,106.773352 12.8670662,111.150484 L1.48865007,122.487122 C-0.496216691,124.465722 -0.496216691,127.673404 1.48865007,129.652004 L38.882318,166.922944 C40.6538612,168.689306 42.5238941,170.358135 44.4593749,171.938298 C32.1833732,185.598395 25.4018549,203.296432 25.4165563,221.635207 L25.4165563,238.133499 C25.4165563,240.931734 27.6924441,243.200153 30.499894,243.200153 L60.9999205,243.200153 L60.9999205,273.600076 C60.9999205,276.398312 63.2758084,278.66673 66.0832583,278.66673 L82.6358768,278.66673 C88.7441564,278.666087 94.8295625,277.922981 100.75734,276.453869 C103.914455,281.666958 107.695122,286.478565 112.016298,290.783 L123.443006,302.469237 C124.389995,303.438015 125.686301,303.989178 127.04328,304 L127.083311,304 C128.426536,304 129.715185,303.470214 130.6677,302.526237 L167.79894,265.729663 C169.601666,263.92656 171.311645,262.033642 172.922309,260.058177 C186.574013,272.064185 204.157974,278.68231 222.364123,278.66673 L238.916742,278.66673 C241.724192,278.66673 244.000079,276.398312 244.000079,273.600076 L244.000079,243.200153 L274.500106,243.200153 C277.307556,243.200153 279.583444,240.931734 279.583444,238.133499 L279.583444,221.635207 C279.582346,215.774025 278.891372,209.933208 277.524692,204.232517 C282.844279,201.051555 287.750615,197.229771 292.132934,192.853446 L303.51135,181.513641 C305.496217,179.535041 305.496217,176.327359 303.51135,174.348759 L266.118317,137.076552 Z M153.5,122 C170.344685,122 184,135.655315 184,152.5 C183.980741,169.336701 170.336701,182.980741 153.5,183 C136.655315,183 123,169.344685 123,152.5 C123,135.655315 136.655315,122 153.5,122 Z M270,71 L270,82.28125 C269.95964,117.455724 240.915522,145.96039 205.07537,146 L193.250745,146 C192.341411,138.886741 189.490715,132.146751 185,126.4925 L193.373653,118.27375 C206.18149,105.77498 213.93083,89.1381383 215.181833,71.454375 C217.724341,71.1568613 220.282365,71.0051454 222.842876,71 L270,71 Z M222.452287,35 L234,35 L234,60.6094558 L222.452287,60.6094558 C219.893216,60.611097 217.335846,60.7414428 214.789851,61 C214.262172,52.5318665 212.304514,44.2144245 209,36.4008372 C213.423793,35.4706867 217.931906,35.0012399 222.452287,35 L222.452287,35 Z M177.911838,11 L185.845339,19.0634447 C185.860721,19.0786827 185.876104,19.0945556 185.892127,19.1097936 C211.369291,44.4051414 211.369291,85.3561298 185.892127,110.651478 L177.464465,119 C171.66555,114.523415 164.753575,111.681748 157.458944,110.775286 L157.458944,98.9861494 C157.475259,80.9864863 150.918999,63.5883739 139,50.0023104 C140.598919,47.9916072 142.31574,46.0757232 144.141585,44.2645663 L177.911838,11 Z M71,35 L82.5820833,35 C118.694543,35.0400398 147.959334,63.8540527 148,99.4102573 L148,111.141201 C130.993108,113.278883 117.113738,125.573399 113.163275,142 C87.8212718,132.434767 71.0662505,108.505685 71,81.783517 L71,35 Z M35,81.378142 L35,70 L60.6467165,70 L60.6467165,81.378142 C60.6467165,83.7413915 60.7749501,86.0819478 61,88.4010716 C52.4930315,88.8710139 44.1299732,90.7644902 36.2707948,94 C35.4274088,89.8438378 35.0017624,85.61621 35,81.378142 L35,81.378142 Z M12,124.861299 L19.7807679,117.020887 C31.1931906,105.434497 46.5396942,98.6376467 62.727736,98 C67.4985879,118.169758 80.2405619,135.499596 98,145.972364 C80.9039476,146.43007 64.483424,152.794799 51.4900487,164 C49.4912138,162.413774 47.5856217,160.71175 45.7829243,158.902548 L12,124.861299 Z M35,220.71875 C35.0403596,185.544276 64.0844775,157.03961 99.9246295,157 L111.749255,157 C112.658589,164.113259 115.509285,170.853249 120,176.5075 L111.626347,184.72625 C98.8186494,197.224861 91.069321,213.861457 89.8181668,231.545 C87.2756996,231.843026 84.7176566,231.994951 82.1571242,232 L35,232 L35,220.71875 Z M82.5477135,268 L71,268 L71,242.390544 L82.5477135,242.390544 C85.1067836,242.388903 87.6641544,242.258557 90.2101492,242 C90.7378278,250.468133 92.6954859,258.785576 96,266.599163 C91.5762075,267.529313 87.0680938,267.99876 82.5477135,268 Z M127.108223,292 L119.177768,283.936555 C119.162392,283.921317 119.147015,283.905444 119.130998,283.890206 C93.6230007,258.611516 93.6230007,217.627213 119.130998,192.348522 L127.555425,184 C133.352114,188.476585 140.261436,191.318252 147.553267,192.224714 L147.553267,204.013851 C147.536852,222.010716 154.088677,239.406313 166,252.99134 C164.403558,255.00431 162.689557,256.922925 160.866795,258.737338 L127.108223,292 Z M234,268 L222.417917,268 C186.305457,267.95996 157.040666,239.145947 157,203.589743 L157,191.858799 C174.006892,189.721117 187.886262,177.426601 191.836725,161 C217.178493,170.565528 233.933386,194.494427 234,221.216483 L234,268 Z M270,221.621858 L270,233 L244.353284,233 L244.353284,221.621858 C244.353284,219.257348 244.22505,216.915531 244,214.595146 C252.506951,214.126417 260.870214,212.234222 268.729846,209 C269.572673,213.156234 269.998101,217.383828 270,221.621858 L270,221.621858 Z M285.219232,185.979113 C273.805243,197.563204 258.459684,204.359636 242.272264,205 C237.501275,184.830306 224.759337,167.500517 207,157.027636 C224.096093,156.570137 240.516683,150.205383 253.509951,139 C255.508904,140.586084 257.414504,142.288115 259.217076,144.097452 L293,178.138701 L285.219232,185.979113 Z" id="Shape"></path>
            </g>
        </g>
    </g>
</svg>